<svg width="80" height="80" viewBox="0 0 80 80" fill="none" xmlns="http://www.w3.org/2000/svg">
<path d="M47.3454 34.9173H64.3074C66.2762 34.9173 68.0936 36.3248 68.6993 38.2015C69.4566 40.2346 69.0022 42.424 67.4878 43.8316L28.7175 78.8629C26.9001 80.2704 24.477 80.4268 22.6596 79.0193C20.8423 77.7682 20.085 75.2659 20.9937 73.0765L32.6551 44.9263H15.6931C13.7243 44.9263 11.9069 43.6752 11.3011 41.7985C10.5439 39.7654 10.9982 37.576 12.5127 36.1684L51.283 1.13708C53.1004 -0.270431 55.5235 -0.426821 57.3409 0.980689C59.1582 2.23181 59.9154 4.73405 59.0068 6.92351L47.3454 34.9173Z" fill="#08DDBC"/>
</svg>
