<svg width="32" height="32" viewBox="0 0 32 32" fill="none" xmlns="http://www.w3.org/2000/svg">
<path d="M18.3595 14.3902H23.8075C24.4398 14.3902 25.0236 14.8359 25.2181 15.4302C25.4613 16.074 25.3154 16.7673 24.829 17.213L12.3764 28.3063C11.7927 28.752 11.0144 28.8015 10.4307 28.3558C9.84702 27.9596 9.60381 27.1672 9.89566 26.4739L13.6412 17.5597H8.19317C7.56081 17.5597 6.9771 17.1635 6.78253 16.5692C6.53931 15.9254 6.68524 15.2321 7.17167 14.7863L19.6242 3.69308C20.2079 3.24737 20.9862 3.19785 21.5699 3.64356C22.1536 4.03975 22.3968 4.83212 22.105 5.52545L18.3595 14.3902Z" fill="#472BEF"/>
</svg>
